<mxfile host="app.diagrams.net" agent="Mozilla/5.0 (Windows NT 10.0; Win64; x64) AppleWebKit/537.36 (KHTML, like Gecko) Chrome/132.0.0.0 Safari/537.36" version="26.0.10">
  <diagram name="Pagina-1" id="CovTqu8d_VER94u-p7iU">
    <mxGraphModel dx="844" dy="509" grid="1" gridSize="10" guides="1" tooltips="1" connect="1" arrows="1" fold="1" page="1" pageScale="1" pageWidth="827" pageHeight="1169" math="0" shadow="0">
      <root>
        <mxCell id="0" />
        <mxCell id="1" parent="0" />
        <mxCell id="NGZla4Es-uoiGaUekESH-1" value="" style="ellipse;whiteSpace=wrap;html=1;aspect=fixed;" vertex="1" parent="1">
          <mxGeometry x="330" y="30" width="20" height="20" as="geometry" />
        </mxCell>
        <mxCell id="NGZla4Es-uoiGaUekESH-2" value="" style="endArrow=classic;html=1;rounded=0;exitX=0.5;exitY=1;exitDx=0;exitDy=0;" edge="1" parent="1" source="NGZla4Es-uoiGaUekESH-1">
          <mxGeometry width="50" height="50" relative="1" as="geometry">
            <mxPoint x="260" y="110" as="sourcePoint" />
            <mxPoint x="340" y="110" as="targetPoint" />
          </mxGeometry>
        </mxCell>
        <mxCell id="NGZla4Es-uoiGaUekESH-3" value="Disegna" style="rounded=1;whiteSpace=wrap;html=1;fontSize=12;glass=0;strokeWidth=1;shadow=0;" vertex="1" parent="1">
          <mxGeometry x="80" y="330" width="120" height="40" as="geometry" />
        </mxCell>
        <mxCell id="NGZla4Es-uoiGaUekESH-4" value="Selezione Interazione oggetti" style="rhombus;whiteSpace=wrap;html=1;shadow=0;fontFamily=Helvetica;fontSize=11;align=center;strokeWidth=1;spacing=6;spacingTop=-4;" vertex="1" parent="1">
          <mxGeometry x="290" y="110" width="100" height="80" as="geometry" />
        </mxCell>
        <mxCell id="NGZla4Es-uoiGaUekESH-6" value="" style="ellipse;whiteSpace=wrap;html=1;aspect=fixed;" vertex="1" parent="1">
          <mxGeometry x="330" y="460" width="10" height="10" as="geometry" />
        </mxCell>
        <mxCell id="NGZla4Es-uoiGaUekESH-7" value="" style="ellipse;whiteSpace=wrap;html=1;aspect=fixed;fillColor=#000000;" vertex="1" parent="1">
          <mxGeometry x="332.5" y="462.5" width="5" height="5" as="geometry" />
        </mxCell>
        <mxCell id="NGZla4Es-uoiGaUekESH-8" value="" style="endArrow=classic;html=1;rounded=0;entryX=0.5;entryY=0;entryDx=0;entryDy=0;exitX=0;exitY=0;exitDx=0;exitDy=0;" edge="1" parent="1" source="NGZla4Es-uoiGaUekESH-11" target="NGZla4Es-uoiGaUekESH-3">
          <mxGeometry width="50" height="50" relative="1" as="geometry">
            <mxPoint x="286" y="151" as="sourcePoint" />
            <mxPoint x="190" y="151" as="targetPoint" />
            <Array as="points">
              <mxPoint x="140" y="295" />
            </Array>
          </mxGeometry>
        </mxCell>
        <mxCell id="NGZla4Es-uoiGaUekESH-17" value="" style="edgeStyle=orthogonalEdgeStyle;rounded=0;orthogonalLoop=1;jettySize=auto;html=1;" edge="1" parent="1" source="NGZla4Es-uoiGaUekESH-9" target="NGZla4Es-uoiGaUekESH-11">
          <mxGeometry relative="1" as="geometry" />
        </mxCell>
        <mxCell id="NGZla4Es-uoiGaUekESH-9" value="Raccoglie oggetto" style="rounded=1;whiteSpace=wrap;html=1;fontSize=12;glass=0;strokeWidth=1;shadow=0;" vertex="1" parent="1">
          <mxGeometry x="280" y="210" width="120" height="40" as="geometry" />
        </mxCell>
        <mxCell id="NGZla4Es-uoiGaUekESH-10" value="" style="endArrow=classic;html=1;rounded=0;exitX=0.5;exitY=1;exitDx=0;exitDy=0;entryX=0.5;entryY=0;entryDx=0;entryDy=0;" edge="1" parent="1" source="NGZla4Es-uoiGaUekESH-4" target="NGZla4Es-uoiGaUekESH-9">
          <mxGeometry width="50" height="50" relative="1" as="geometry">
            <mxPoint x="560" y="161" as="sourcePoint" />
            <mxPoint x="464" y="161" as="targetPoint" />
            <Array as="points">
              <mxPoint x="340" y="200" />
            </Array>
          </mxGeometry>
        </mxCell>
        <mxCell id="NGZla4Es-uoiGaUekESH-11" value="" style="rhombus;whiteSpace=wrap;html=1;labelBackgroundColor=#000000;labelBorderColor=default;textShadow=1;fillColor=none;" vertex="1" parent="1">
          <mxGeometry x="330" y="290" width="20" height="20" as="geometry" />
        </mxCell>
        <mxCell id="NGZla4Es-uoiGaUekESH-15" value="" style="endArrow=classic;html=1;rounded=0;exitX=0.503;exitY=1.07;exitDx=0;exitDy=0;entryX=0.5;entryY=0;entryDx=0;entryDy=0;exitPerimeter=0;" edge="1" parent="1" source="NGZla4Es-uoiGaUekESH-9">
          <mxGeometry width="50" height="50" relative="1" as="geometry">
            <mxPoint x="400" y="160" as="sourcePoint" />
            <mxPoint x="340" y="289.9999999999999" as="targetPoint" />
            <Array as="points" />
          </mxGeometry>
        </mxCell>
        <mxCell id="NGZla4Es-uoiGaUekESH-18" value="Lancia oggetto" style="rounded=1;whiteSpace=wrap;html=1;fontSize=12;glass=0;strokeWidth=1;shadow=0;" vertex="1" parent="1">
          <mxGeometry x="340" y="330" width="120" height="40" as="geometry" />
        </mxCell>
        <mxCell id="NGZla4Es-uoiGaUekESH-22" value="Sposta oggetto" style="rounded=1;whiteSpace=wrap;html=1;fontSize=12;glass=0;strokeWidth=1;shadow=0;" vertex="1" parent="1">
          <mxGeometry x="210" y="330" width="120" height="40" as="geometry" />
        </mxCell>
        <mxCell id="NGZla4Es-uoiGaUekESH-24" value="" style="rhombus;whiteSpace=wrap;html=1;labelBackgroundColor=#000000;labelBorderColor=default;textShadow=1;fillColor=none;" vertex="1" parent="1">
          <mxGeometry x="320" y="390" width="30" height="30" as="geometry" />
        </mxCell>
        <mxCell id="NGZla4Es-uoiGaUekESH-26" value="" style="endArrow=classic;html=1;rounded=0;exitX=1;exitY=1;exitDx=0;exitDy=0;entryX=0.5;entryY=0;entryDx=0;entryDy=0;" edge="1" parent="1" source="NGZla4Es-uoiGaUekESH-11" target="NGZla4Es-uoiGaUekESH-18">
          <mxGeometry width="50" height="50" relative="1" as="geometry">
            <mxPoint x="420" y="263" as="sourcePoint" />
            <mxPoint x="420" y="299.9999999999999" as="targetPoint" />
            <Array as="points">
              <mxPoint x="400" y="305" />
            </Array>
          </mxGeometry>
        </mxCell>
        <mxCell id="NGZla4Es-uoiGaUekESH-29" value="" style="endArrow=classic;html=1;rounded=0;exitX=0;exitY=1;exitDx=0;exitDy=0;" edge="1" parent="1" source="NGZla4Es-uoiGaUekESH-11">
          <mxGeometry width="50" height="50" relative="1" as="geometry">
            <mxPoint x="355" y="315" as="sourcePoint" />
            <mxPoint x="280" y="330" as="targetPoint" />
            <Array as="points">
              <mxPoint x="280" y="305" />
            </Array>
          </mxGeometry>
        </mxCell>
        <mxCell id="NGZla4Es-uoiGaUekESH-30" value="" style="endArrow=classic;html=1;rounded=0;exitX=0.5;exitY=1;exitDx=0;exitDy=0;entryX=0;entryY=0.5;entryDx=0;entryDy=0;" edge="1" parent="1" source="NGZla4Es-uoiGaUekESH-22" target="NGZla4Es-uoiGaUekESH-24">
          <mxGeometry width="50" height="50" relative="1" as="geometry">
            <mxPoint x="315" y="390" as="sourcePoint" />
            <mxPoint x="260" y="415" as="targetPoint" />
            <Array as="points">
              <mxPoint x="270" y="405" />
            </Array>
          </mxGeometry>
        </mxCell>
        <mxCell id="NGZla4Es-uoiGaUekESH-31" value="" style="endArrow=classic;html=1;rounded=0;exitX=0.5;exitY=1;exitDx=0;exitDy=0;entryX=1;entryY=0.5;entryDx=0;entryDy=0;" edge="1" parent="1" source="NGZla4Es-uoiGaUekESH-18" target="NGZla4Es-uoiGaUekESH-24">
          <mxGeometry width="50" height="50" relative="1" as="geometry">
            <mxPoint x="392.5" y="380" as="sourcePoint" />
            <mxPoint x="353" y="406" as="targetPoint" />
            <Array as="points">
              <mxPoint x="400" y="405" />
            </Array>
          </mxGeometry>
        </mxCell>
        <mxCell id="NGZla4Es-uoiGaUekESH-32" value="" style="endArrow=classic;html=1;rounded=0;exitX=0.5;exitY=1;exitDx=0;exitDy=0;entryX=0.235;entryY=0.783;entryDx=0;entryDy=0;entryPerimeter=0;" edge="1" parent="1" source="NGZla4Es-uoiGaUekESH-3" target="NGZla4Es-uoiGaUekESH-24">
          <mxGeometry width="50" height="50" relative="1" as="geometry">
            <mxPoint x="280" y="380" as="sourcePoint" />
            <mxPoint x="330" y="415" as="targetPoint" />
            <Array as="points">
              <mxPoint x="140" y="413" />
            </Array>
          </mxGeometry>
        </mxCell>
        <mxCell id="NGZla4Es-uoiGaUekESH-33" value="" style="endArrow=classic;html=1;rounded=0;exitX=0.5;exitY=1;exitDx=0;exitDy=0;entryX=0.5;entryY=0;entryDx=0;entryDy=0;" edge="1" parent="1" source="NGZla4Es-uoiGaUekESH-24" target="NGZla4Es-uoiGaUekESH-6">
          <mxGeometry width="50" height="50" relative="1" as="geometry">
            <mxPoint x="334.76" y="420" as="sourcePoint" />
            <mxPoint x="334.76" y="456.9999999999999" as="targetPoint" />
            <Array as="points" />
          </mxGeometry>
        </mxCell>
        <mxCell id="NGZla4Es-uoiGaUekESH-34" value="Dare oggetto" style="rounded=1;whiteSpace=wrap;html=1;fontSize=12;glass=0;strokeWidth=1;shadow=0;" vertex="1" parent="1">
          <mxGeometry x="470" y="330" width="120" height="40" as="geometry" />
        </mxCell>
        <mxCell id="NGZla4Es-uoiGaUekESH-35" value="" style="endArrow=classic;html=1;rounded=0;entryX=0.5;entryY=0;entryDx=0;entryDy=0;exitX=1;exitY=0;exitDx=0;exitDy=0;" edge="1" parent="1" target="NGZla4Es-uoiGaUekESH-34" source="NGZla4Es-uoiGaUekESH-11">
          <mxGeometry width="50" height="50" relative="1" as="geometry">
            <mxPoint x="330" y="300" as="sourcePoint" />
            <mxPoint x="595" y="151" as="targetPoint" />
            <Array as="points">
              <mxPoint x="530" y="295" />
            </Array>
          </mxGeometry>
        </mxCell>
        <mxCell id="NGZla4Es-uoiGaUekESH-36" value="" style="endArrow=classic;html=1;rounded=0;exitX=0.5;exitY=1;exitDx=0;exitDy=0;entryX=1;entryY=1;entryDx=0;entryDy=0;" edge="1" parent="1" target="NGZla4Es-uoiGaUekESH-24">
          <mxGeometry width="50" height="50" relative="1" as="geometry">
            <mxPoint x="530" y="370" as="sourcePoint" />
            <mxPoint x="480" y="405" as="targetPoint" />
            <Array as="points">
              <mxPoint x="530" y="413" />
            </Array>
          </mxGeometry>
        </mxCell>
      </root>
    </mxGraphModel>
  </diagram>
</mxfile>
